<svg id="visual" viewBox="0 0 900 600" width="900" height="600" xmlns="http://www.w3.org/2000/svg" xmlns:xlink="http://www.w3.org/1999/xlink" version="1.1"><rect x="0" y="0" width="900" height="600" fill="#002233"></rect><path d="M0 477L21.5 476.8C43 476.7 86 476.3 128.8 454C171.7 431.7 214.3 387.3 257.2 372.3C300 357.3 343 371.7 385.8 389.5C428.7 407.3 471.3 428.7 514.2 425.2C557 421.7 600 393.3 642.8 389C685.7 384.7 728.3 404.3 771.2 421.8C814 439.3 857 454.7 878.5 462.3L900 470L900 601L878.5 601C857 601 814 601 771.2 601C728.3 601 685.7 601 642.8 601C600 601 557 601 514.2 601C471.3 601 428.7 601 385.8 601C343 601 300 601 257.2 601C214.3 601 171.7 601 128.8 601C86 601 43 601 21.5 601L0 601Z" fill="#0066FF" stroke-linecap="round" stroke-linejoin="miter"></path></svg>